<svg width="199" height="50" viewBox="0 0 199 50" fill="none" xmlns="http://www.w3.org/2000/svg">
<g clip-path="url(#clip0_363_213)">
<rect width="50" height="50" rx="2" fill="#181A22"/>
<path d="M16.1826 33.9834L40.7695 25.8701V50H0V8.79883L23.8848 8.73633L16.1826 33.9834Z" fill="#FF8800"/>
</g>
<path d="M58 22.1004V10.6681H60.5435V19.8139H65.5287V22.1004H58Z" fill="#181A22"/>
<path d="M66.4604 22.1004L68.6986 10.6681H71.7169L74.1247 18.6875L76.5156 10.6681H79.5338L81.7721 22.1004H78.9743L77.6178 14.2155L75.3625 22.1004H72.8699L70.6147 14.2155L69.2582 22.1004H66.4604Z" fill="#181A22"/>
<path d="M91.9824 22.3694C91.3494 22.3694 90.739 22.2909 90.1511 22.134C89.5746 21.9771 89.0546 21.7361 88.5911 21.4111C88.139 21.0748 87.7772 20.6545 87.5059 20.1502C87.2346 19.6346 87.099 19.0293 87.099 18.3344H89.6763C89.699 18.7828 89.8233 19.1582 90.0494 19.4609C90.2755 19.7523 90.5637 19.9708 90.9142 20.1165C91.2759 20.251 91.6659 20.3183 92.0842 20.3183C92.3555 20.3183 92.6494 20.279 92.9659 20.2006C93.2824 20.1109 93.5537 19.9708 93.7798 19.7803C94.0172 19.5785 94.1359 19.3096 94.1359 18.9733C94.1359 18.7155 94.0511 18.5026 93.8816 18.3344C93.7233 18.1551 93.5029 18.0094 93.2203 17.8973C92.9377 17.7853 92.6155 17.6844 92.2537 17.5947C91.892 17.505 91.519 17.4098 91.1346 17.3089C90.6937 17.1968 90.2529 17.0623 89.812 16.9054C89.3824 16.7485 88.9924 16.5524 88.642 16.317C88.2916 16.0704 88.009 15.7566 87.7942 15.3755C87.5794 14.9944 87.472 14.5237 87.472 13.9633C87.472 13.3693 87.5963 12.8593 87.845 12.4334C88.0937 11.9963 88.4216 11.6376 88.8285 11.3574C89.2468 11.066 89.7103 10.8531 90.219 10.7186C90.739 10.5729 91.259 10.5 91.779 10.5C92.3781 10.5 92.9433 10.5672 93.4746 10.7017C94.0172 10.8362 94.5033 11.0492 94.9329 11.3406C95.3624 11.632 95.7016 12.0131 95.9503 12.4838C96.2103 12.9434 96.3516 13.4982 96.3742 14.1482H93.9155C93.8476 13.5542 93.6385 13.1451 93.2881 12.9209C92.9377 12.6856 92.4459 12.5679 91.8129 12.5679C91.5755 12.5679 91.3211 12.6071 91.0498 12.6856C90.7898 12.764 90.5637 12.8929 90.3716 13.0723C90.1907 13.2404 90.1003 13.4701 90.1003 13.7616C90.1003 13.9857 90.1681 14.1706 90.3037 14.3164C90.4507 14.4621 90.6485 14.5853 90.8972 14.6862C91.1572 14.7871 91.4455 14.8768 91.762 14.9552C92.0898 15.0337 92.4346 15.1121 92.7963 15.1906C93.2598 15.3027 93.7233 15.4372 94.1868 15.5941C94.6503 15.7398 95.0742 15.9359 95.4585 16.1825C95.8542 16.4291 96.1707 16.7541 96.4081 17.1576C96.6455 17.5611 96.7642 18.0711 96.7642 18.6875C96.7642 19.36 96.6285 19.9316 96.3572 20.4023C96.0859 20.8731 95.7185 21.2542 95.255 21.5456C94.8029 21.8258 94.2885 22.0331 93.712 22.1676C93.1468 22.3021 92.5703 22.3694 91.9824 22.3694Z" fill="#181A22"/>
<path d="M103.799 22.2685C103.008 22.2685 102.25 22.1116 101.527 21.7977C100.815 21.4839 100.182 21.058 99.6278 20.52C99.0852 19.9708 98.6557 19.3432 98.3391 18.6371C98.0226 17.9197 97.8644 17.1688 97.8644 16.3842C97.8644 15.5885 98.0226 14.8375 98.3391 14.1314C98.6557 13.4253 99.0852 12.8033 99.6278 12.2653C100.182 11.7161 100.815 11.2846 101.527 10.9707C102.25 10.6569 103.008 10.5 103.799 10.5C104.602 10.5 105.359 10.6569 106.071 10.9707C106.783 11.2846 107.411 11.7161 107.953 12.2653C108.507 12.8033 108.943 13.4253 109.259 14.1314C109.576 14.8375 109.734 15.5885 109.734 16.3842C109.734 17.1688 109.576 17.9197 109.259 18.6371C108.943 19.3432 108.507 19.9708 107.953 20.52C107.411 21.058 106.783 21.4839 106.071 21.7977C105.359 22.1116 104.602 22.2685 103.799 22.2685ZM103.799 19.7467C104.24 19.7467 104.664 19.657 105.071 19.4777C105.478 19.2871 105.84 19.035 106.156 18.7211C106.473 18.4073 106.721 18.0486 106.902 17.6451C107.094 17.2305 107.19 16.8045 107.19 16.3674C107.19 15.9303 107.094 15.51 106.902 15.1065C106.721 14.703 106.473 14.3444 106.156 14.0305C105.84 13.7167 105.478 13.4701 105.071 13.2908C104.664 13.1003 104.24 13.005 103.799 13.005C103.358 13.005 102.934 13.1003 102.527 13.2908C102.12 13.4701 101.759 13.7167 101.442 14.0305C101.126 14.3444 100.871 14.703 100.679 15.1065C100.498 15.51 100.408 15.9303 100.408 16.3674C100.408 16.8045 100.498 17.2305 100.679 17.6451C100.871 18.0486 101.126 18.4073 101.442 18.7211C101.759 19.035 102.12 19.2871 102.527 19.4777C102.934 19.657 103.358 19.7467 103.799 19.7467Z" fill="#181A22"/>
<path d="M111.337 22.1004V10.6681H113.88V19.8139H118.866V22.1004H111.337Z" fill="#181A22"/>
<path d="M125.071 22.2685C124.076 22.2685 123.222 22.0948 122.51 21.7473C121.798 21.3999 121.25 20.8843 120.865 20.2006C120.492 19.5057 120.306 18.6539 120.306 17.6451V10.6681H122.849V17.2753C122.849 17.8021 122.912 18.2504 123.036 18.6203C123.172 18.9901 123.398 19.2703 123.714 19.4609C124.042 19.6514 124.494 19.7467 125.071 19.7467C125.659 19.7467 126.111 19.6514 126.427 19.4609C126.744 19.2703 126.964 18.9901 127.089 18.6203C127.224 18.2504 127.292 17.8021 127.292 17.2753V10.6681H129.835V17.6451C129.835 18.6539 129.643 19.5057 129.259 20.2006C128.886 20.8843 128.343 21.3999 127.631 21.7473C126.93 22.0948 126.077 22.2685 125.071 22.2685Z" fill="#181A22"/>
<path d="M137.133 22.2685C136.319 22.2685 135.55 22.1172 134.826 21.8146C134.114 21.5119 133.481 21.0916 132.927 20.5536C132.385 20.0044 131.961 19.3768 131.656 18.6707C131.35 17.9534 131.198 17.1912 131.198 16.3842C131.198 15.5773 131.35 14.8207 131.656 14.1146C131.961 13.3973 132.385 12.7696 132.927 12.2316C133.481 11.6825 134.114 11.2565 134.826 10.9539C135.55 10.6513 136.319 10.5 137.133 10.5C138.014 10.5 138.828 10.6737 139.574 11.0212C140.332 11.3686 140.987 11.845 141.541 12.4502C142.095 13.0442 142.502 13.7335 142.762 14.5181H139.93C139.693 14.0025 139.314 13.599 138.794 13.3076C138.274 13.005 137.72 12.8537 137.133 12.8537C136.669 12.8537 136.234 12.949 135.827 13.1395C135.42 13.3188 135.064 13.571 134.759 13.896C134.453 14.2211 134.21 14.5966 134.03 15.0225C133.86 15.4484 133.775 15.9023 133.775 16.3842C133.775 16.8662 133.86 17.3257 134.03 17.7628C134.21 18.1887 134.453 18.5642 134.759 18.8892C135.064 19.2031 135.42 19.4553 135.827 19.6458C136.234 19.8251 136.669 19.9148 137.133 19.9148C137.732 19.9148 138.291 19.7579 138.811 19.444C139.331 19.1302 139.71 18.7211 139.947 18.2168H142.779C142.519 19.0013 142.112 19.7018 141.558 20.3183C141.004 20.9235 140.349 21.3999 139.591 21.7473C138.834 22.0948 138.014 22.2685 137.133 22.2685Z" fill="#181A22"/>
<path d="M149.817 22.2685C149.026 22.2685 148.268 22.1116 147.545 21.7977C146.832 21.4839 146.199 21.058 145.646 20.52C145.103 19.9708 144.673 19.3432 144.357 18.6371C144.04 17.9197 143.882 17.1688 143.882 16.3842C143.882 15.5885 144.04 14.8375 144.357 14.1314C144.673 13.4253 145.103 12.8033 145.646 12.2653C146.199 11.7161 146.832 11.2846 147.545 10.9707C148.268 10.6569 149.026 10.5 149.817 10.5C150.619 10.5 151.377 10.6569 152.089 10.9707C152.801 11.2846 153.429 11.7161 153.971 12.2653C154.525 12.8033 154.96 13.4253 155.277 14.1314C155.593 14.8375 155.752 15.5885 155.752 16.3842C155.752 17.1688 155.593 17.9197 155.277 18.6371C154.96 19.3432 154.525 19.9708 153.971 20.52C153.429 21.058 152.801 21.4839 152.089 21.7977C151.377 22.1116 150.619 22.2685 149.817 22.2685ZM149.817 19.7467C150.258 19.7467 150.682 19.657 151.089 19.4777C151.496 19.2871 151.857 19.035 152.174 18.7211C152.49 18.4073 152.739 18.0486 152.92 17.6451C153.112 17.2305 153.208 16.8045 153.208 16.3674C153.208 15.9303 153.112 15.51 152.92 15.1065C152.739 14.703 152.49 14.3444 152.174 14.0305C151.857 13.7167 151.496 13.4701 151.089 13.2908C150.682 13.1003 150.258 13.005 149.817 13.005C149.376 13.005 148.952 13.1003 148.545 13.2908C148.138 13.4701 147.776 13.7167 147.46 14.0305C147.143 14.3444 146.889 14.703 146.697 15.1065C146.516 15.51 146.426 15.9303 146.426 16.3674C146.426 16.8045 146.516 17.2305 146.697 17.6451C146.889 18.0486 147.143 18.4073 147.46 18.7211C147.776 19.035 148.138 19.2871 148.545 19.4777C148.952 19.657 149.376 19.7467 149.817 19.7467Z" fill="#181A22"/>
<path d="M157.355 22.1004V10.6681H164.544V12.9546H159.898V15.2242H164.375V17.5107H159.898V19.8139H164.544V22.1004H157.355Z" fill="#181A22"/>
<path d="M170.787 22.3694C170.154 22.3694 169.544 22.2909 168.956 22.134C168.379 21.9771 167.859 21.7361 167.396 21.4111C166.944 21.0748 166.582 20.6545 166.311 20.1502C166.039 19.6346 165.904 19.0293 165.904 18.3344H168.481C168.504 18.7828 168.628 19.1582 168.854 19.4609C169.08 19.7523 169.368 19.9708 169.719 20.1165C170.081 20.251 170.471 20.3183 170.889 20.3183C171.16 20.3183 171.454 20.279 171.771 20.2006C172.087 20.1109 172.358 19.9708 172.585 19.7803C172.822 19.5785 172.941 19.3096 172.941 18.9733C172.941 18.7155 172.856 18.5026 172.686 18.3344C172.528 18.1551 172.308 18.0094 172.025 17.8973C171.742 17.7853 171.42 17.6844 171.058 17.5947C170.697 17.505 170.324 17.4098 169.939 17.3089C169.498 17.1968 169.058 17.0623 168.617 16.9054C168.187 16.7485 167.797 16.5524 167.447 16.317C167.096 16.0704 166.814 15.7566 166.599 15.3755C166.384 14.9944 166.277 14.5237 166.277 13.9633C166.277 13.3693 166.401 12.8593 166.65 12.4334C166.898 11.9963 167.226 11.6376 167.633 11.3574C168.051 11.066 168.515 10.8531 169.024 10.7186C169.544 10.5729 170.064 10.5 170.584 10.5C171.183 10.5 171.748 10.5672 172.279 10.7017C172.822 10.8362 173.308 11.0492 173.738 11.3406C174.167 11.632 174.506 12.0131 174.755 12.4838C175.015 12.9434 175.156 13.4982 175.179 14.1482H172.72C172.652 13.5542 172.443 13.1451 172.093 12.9209C171.742 12.6856 171.251 12.5679 170.618 12.5679C170.38 12.5679 170.126 12.6071 169.855 12.6856C169.595 12.764 169.368 12.8929 169.176 13.0723C168.995 13.2404 168.905 13.4701 168.905 13.7616C168.905 13.9857 168.973 14.1706 169.108 14.3164C169.255 14.4621 169.453 14.5853 169.702 14.6862C169.962 14.7871 170.25 14.8768 170.567 14.9552C170.895 15.0337 171.239 15.1121 171.601 15.1906C172.065 15.3027 172.528 15.4372 172.991 15.5941C173.455 15.7398 173.879 15.9359 174.263 16.1825C174.659 16.4291 174.975 16.7541 175.213 17.1576C175.45 17.5611 175.569 18.0711 175.569 18.6875C175.569 19.36 175.433 19.9316 175.162 20.4023C174.891 20.8731 174.523 21.2542 174.06 21.5456C173.608 21.8258 173.093 22.0331 172.517 22.1676C171.951 22.3021 171.375 22.3694 170.787 22.3694Z" fill="#181A22"/>
<path d="M58 39.231V27.7988H65.1896V30.0852H60.5435V32.3549H65.02V34.6413H60.5435V36.9446H65.1896V39.231H58Z" fill="#181A22"/>
<path d="M66.2948 39.231L68.533 27.7988H71.5513L73.9591 35.8181L76.35 27.7988H79.3682L81.6065 39.231H78.8087L77.4522 31.3461L75.1969 39.231H72.7043L70.4491 31.3461L69.0926 39.231H66.2948Z" fill="#181A22"/>
<path d="M87.4421 39.231V27.7988H92.1051C92.7268 27.7988 93.3147 27.9557 93.8686 28.2695C94.4225 28.5721 94.8747 28.998 95.2251 29.5472C95.5755 30.0964 95.7508 30.7353 95.7508 31.4638C95.7508 32.1027 95.6321 32.6631 95.3947 33.145C95.1686 33.627 94.8521 34.0249 94.4451 34.3387C94.0381 34.6525 93.569 34.8823 93.0377 35.028L96.1408 39.231H93.309L90.3416 35.1457H89.9855V39.231H87.4421ZM89.9855 33.1618H91.6812C91.9299 33.1618 92.1673 33.1002 92.3934 32.9769C92.6308 32.8424 92.8229 32.6463 92.9699 32.3885C93.1281 32.1307 93.2073 31.8225 93.2073 31.4638C93.2073 31.1164 93.1281 30.8193 92.9699 30.5728C92.8229 30.315 92.6308 30.1188 92.3934 29.9843C92.1673 29.8498 91.9299 29.7826 91.6812 29.7826H89.9855V33.1618Z" fill="#181A22"/>
<path d="M102.673 39.3991C101.882 39.3991 101.124 39.2422 100.401 38.9284C99.6888 38.6146 99.0557 38.1887 98.5018 37.6507C97.9592 37.1015 97.5296 36.4738 97.2131 35.7677C96.8966 35.0504 96.7383 34.2995 96.7383 33.5149C96.7383 32.7191 96.8966 31.9682 97.2131 31.2621C97.5296 30.556 97.9592 29.9339 98.5018 29.3959C99.0557 28.8467 99.6888 28.4152 100.401 28.1014C101.124 27.7876 101.882 27.6306 102.673 27.6306C103.476 27.6306 104.233 27.7876 104.945 28.1014C105.657 28.4152 106.285 28.8467 106.827 29.3959C107.381 29.9339 107.817 30.556 108.133 31.2621C108.45 31.9682 108.608 32.7191 108.608 33.5149C108.608 34.2995 108.45 35.0504 108.133 35.7677C107.817 36.4738 107.381 37.1015 106.827 37.6507C106.285 38.1887 105.657 38.6146 104.945 38.9284C104.233 39.2422 103.476 39.3991 102.673 39.3991ZM102.673 36.8773C103.114 36.8773 103.538 36.7876 103.945 36.6083C104.352 36.4178 104.714 36.1656 105.03 35.8518C105.347 35.5379 105.595 35.1793 105.776 34.7758C105.968 34.3611 106.064 33.9352 106.064 33.4981C106.064 33.061 105.968 32.6407 105.776 32.2372C105.595 31.8337 105.347 31.475 105.03 31.1612C104.714 30.8474 104.352 30.6008 103.945 30.4215C103.538 30.2309 103.114 30.1357 102.673 30.1357C102.232 30.1357 101.808 30.2309 101.401 30.4215C100.994 30.6008 100.633 30.8474 100.316 31.1612C99.9996 31.475 99.7453 31.8337 99.5531 32.2372C99.3722 32.6407 99.2818 33.061 99.2818 33.4981C99.2818 33.9352 99.3722 34.3611 99.5531 34.7758C99.7453 35.1793 99.9996 35.5379 100.316 35.8518C100.633 36.1656 100.994 36.4178 101.401 36.6083C101.808 36.7876 102.232 36.8773 102.673 36.8773Z" fill="#181A22"/>
<path d="M110.211 39.231V27.7988H112.754V36.9446H117.74V39.231H110.211Z" fill="#181A22"/>
<path d="M118.502 39.231L123.182 27.7988H125.335L130.015 39.231H127.285L126.454 36.9277H122.062L121.232 39.231H118.502ZM122.792 34.8599H125.708L124.25 30.7913L122.792 34.8599Z" fill="#181A22"/>
<path d="M130.362 39.231L132.6 27.7988H135.618L138.026 35.8181L140.417 27.7988H143.435L145.674 39.231H142.876L141.519 31.3461L139.264 39.231H136.771L134.516 31.3461L133.16 39.231H130.362Z" fill="#181A22"/>
<path d="M146.939 39.231V27.7988H154.128V30.0852H149.482V32.3549H153.959V34.6413H149.482V36.9446H154.128V39.231H146.939Z" fill="#181A22"/>
<path d="M155.997 39.231V27.7988H158.54L162.508 34.9271V27.7988H165.051V39.231H162.508L158.54 32.1027V39.231H155.997Z" fill="#181A22"/>
<path d="M169.872 39.231V30.0852H166.413V27.7988H175.875V30.0852H172.416V39.231H169.872Z" fill="#181A22"/>
<path d="M182.306 39.3991C181.514 39.3991 180.757 39.2422 180.034 38.9284C179.321 38.6146 178.688 38.1887 178.134 37.6507C177.592 37.1015 177.162 36.4738 176.846 35.7677C176.529 35.0504 176.371 34.2995 176.371 33.5149C176.371 32.7191 176.529 31.9682 176.846 31.2621C177.162 30.556 177.592 29.9339 178.134 29.3959C178.688 28.8467 179.321 28.4152 180.034 28.1014C180.757 27.7876 181.514 27.6306 182.306 27.6306C183.108 27.6306 183.866 27.7876 184.578 28.1014C185.29 28.4152 185.918 28.8467 186.46 29.3959C187.014 29.9339 187.449 30.556 187.766 31.2621C188.082 31.9682 188.241 32.7191 188.241 33.5149C188.241 34.2995 188.082 35.0504 187.766 35.7677C187.449 36.4738 187.014 37.1015 186.46 37.6507C185.918 38.1887 185.29 38.6146 184.578 38.9284C183.866 39.2422 183.108 39.3991 182.306 39.3991ZM182.306 36.8773C182.747 36.8773 183.171 36.7876 183.578 36.6083C183.984 36.4178 184.346 36.1656 184.663 35.8518C184.979 35.5379 185.228 35.1793 185.409 34.7758C185.601 34.3611 185.697 33.9352 185.697 33.4981C185.697 33.061 185.601 32.6407 185.409 32.2372C185.228 31.8337 184.979 31.475 184.663 31.1612C184.346 30.8474 183.984 30.6008 183.578 30.4215C183.171 30.2309 182.747 30.1357 182.306 30.1357C181.865 30.1357 181.441 30.2309 181.034 30.4215C180.627 30.6008 180.265 30.8474 179.949 31.1612C179.632 31.475 179.378 31.8337 179.186 32.2372C179.005 32.6407 178.914 33.061 178.914 33.4981C178.914 33.9352 179.005 34.3611 179.186 34.7758C179.378 35.1793 179.632 35.5379 179.949 35.8518C180.265 36.1656 180.627 36.4178 181.034 36.6083C181.441 36.7876 181.865 36.8773 182.306 36.8773Z" fill="#181A22"/>
<path d="M194.218 39.5C193.585 39.5 192.975 39.4215 192.387 39.2646C191.81 39.1077 191.29 38.8667 190.827 38.5417C190.375 38.2055 190.013 37.7852 189.742 37.2808C189.47 36.7652 189.335 36.16 189.335 35.4651H191.912C191.935 35.9134 192.059 36.2889 192.285 36.5915C192.511 36.8829 192.8 37.1015 193.15 37.2472C193.512 37.3817 193.902 37.4489 194.32 37.4489C194.591 37.4489 194.885 37.4097 195.202 37.3312C195.518 37.2416 195.79 37.1015 196.016 36.9109C196.253 36.7092 196.372 36.4402 196.372 36.104C196.372 35.8462 196.287 35.6332 196.117 35.4651C195.959 35.2858 195.739 35.1401 195.456 35.028C195.173 34.9159 194.851 34.815 194.49 34.7254C194.128 34.6357 193.755 34.5404 193.37 34.4396C192.93 34.3275 192.489 34.193 192.048 34.0361C191.618 33.8791 191.228 33.683 190.878 33.4476C190.527 33.2011 190.245 32.8872 190.03 32.5062C189.815 32.1251 189.708 31.6543 189.708 31.0939C189.708 30.4999 189.832 29.9899 190.081 29.564C190.33 29.1269 190.657 28.7683 191.064 28.4881C191.483 28.1967 191.946 27.9837 192.455 27.8492C192.975 27.7035 193.495 27.6306 194.015 27.6306C194.614 27.6306 195.179 27.6979 195.71 27.8324C196.253 27.9669 196.739 28.1798 197.169 28.4713C197.598 28.7627 197.937 29.1437 198.186 29.6145C198.446 30.074 198.587 30.6288 198.61 31.2789H196.151C196.083 30.6848 195.874 30.2758 195.524 30.0516C195.173 29.8162 194.682 29.6985 194.049 29.6985C193.811 29.6985 193.557 29.7378 193.286 29.8162C193.026 29.8947 192.8 30.0236 192.607 30.2029C192.427 30.371 192.336 30.6008 192.336 30.8922C192.336 31.1164 192.404 31.3013 192.54 31.447C192.687 31.5927 192.884 31.716 193.133 31.8169C193.393 31.9177 193.681 32.0074 193.998 32.0859C194.326 32.1643 194.67 32.2428 195.032 32.3212C195.496 32.4333 195.959 32.5678 196.423 32.7247C196.886 32.8704 197.31 33.0666 197.694 33.3131C198.09 33.5597 198.407 33.8848 198.644 34.2882C198.881 34.6917 199 35.2017 199 35.8181C199 36.4906 198.864 37.0622 198.593 37.533C198.322 38.0037 197.954 38.3848 197.491 38.6762C197.039 38.9564 196.524 39.1638 195.948 39.2983C195.383 39.4328 194.806 39.5 194.218 39.5Z" fill="#181A22"/>
<line x1="147" y1="8" x2="153" y2="8" stroke="#181A22" stroke-width="2"/>
<line x1="135.909" y1="20.911" x2="134.035" y2="24.9945" stroke="#181A22" stroke-width="2"/>
<defs>
<clipPath id="clip0_363_213">
<rect width="50" height="50" rx="2" fill="white"/>
</clipPath>
</defs>
</svg>
